<?xml version="1.0" standalone="no"?>
<!DOCTYPE svg PUBLIC "-//W3C//DTD SVG 20010904//EN" "http://www.w3.org/TR/2001/REC-SVG-20010904/DTD/svg10.dtd">
<svg version="1.0" xmlns="http://www.w3.org/2000/svg" width="300.000000pt" height="300.000000pt" viewBox="0 0 300.000000 300.000000" preserveAspectRatio="xMidYMid meet">
	<metadata>
		Created by potrace 1.10, written by Peter Selinger 2001-2011
	</metadata>
	<g transform="translate(0.000000,300.000000) scale(0.050000,-0.050000)" fill="#00ff00" stroke="none">
		<path d="M2799 5008 c0 -10 0 -425 1 -922 l1 -905 -45 -9 c-137 -26 -601 -93
-607 -88 -4 4 -25 92 -49 196 -54 245 -70 308 -110 430 -39 120 -45 143 -151
595 -47 196 -92 361 -102 367 -26 16 -21 -40 24 -228 141 -594 182 -758 199
-794 10 -22 45 -148 78 -280 34 -132 66 -259 73 -282 10 -36 -21 -61 -232
-185 -295 -173 -264 -173 -349 -3 -39 77 -79 140 -90 140 -34 0 -23 -30 71
-197 l91 -162 -2 -255 c-2 -262 39 -467 216 -1084 l36 -128 214 -124 c194
-112 227 -125 359 -136 80 -7 229 -22 331 -35 l187 -22 338 186 c187 102 339
193 339 203 0 9 43 76 95 149 52 73 109 152 125 177 203 297 310 444 320 438
18 -11 250 175 450 361 99 91 243 214 319 271 76 58 128 109 115 113 -35 12
-291 -180 -464 -347 -149 -145 -418 -368 -443 -368 -8 0 -57 61 -109 135 -53
74 -184 254 -292 400 -108 146 -196 278 -196 294 0 15 -10 31 -22 35 -15 5 -6
60 28 167 109 347 175 569 234 789 34 127 79 289 100 360 21 72 52 180 68 240
16 61 38 139 49 175 25 80 -8 110 -37 34 -11 -29 -47 -153 -79 -276 -58 -220
-213 -769 -273 -963 -17 -55 -52 -185 -79 -289 -49 -190 -74 -231 -129 -208
-16 6 -154 54 -306 104 l-276 93 4 916 c2 503 -2 921 -9 928 -7 7 -13 4 -14
-6z m-39 -1887 c0 -66 -234 -108 -349 -63 -35 14 55 35 334 80 8 1 15 -6 15
-17z m300 -72 c231 -73 231 -82 1 -61 -181 17 -199 23 -220 67 -25 56 -10 97
26 68 13 -11 100 -44 193 -74z m-544 -47 l86 -12 -90 -75 c-144 -120 -191
-120 -268 5 -35 56 -64 107 -64 112 0 10 159 -5 336 -30z m-396 -99 l0 -97
-181 -25 c-100 -14 -186 -21 -191 -15 -7 6 321 214 367 232 3 1 5 -42 5 -95z
m600 78 c0 -62 -50 -121 -102 -121 -30 0 -71 -5 -91 -12 -21 -6 4 26 53 70 87
79 140 103 140 63z m88 -33 c21 -54 13 -68 -38 -68 -56 0 -59 6 -29 61 25 47
51 50 67 7z m406 -16 c13 -13 -274 -35 -294 -22 -11 7 -20 24 -20 37 0 23 290
9 314 -15z m-954 -97 c0 -8 -13 -15 -30 -15 -16 0 -30 7 -30 15 0 8 -6 38 -12
65 l-11 50 41 -50 c23 -27 41 -57 42 -65z m1120 70 c-1 -17 -307 -212 -333
-211 -21 0 -98 142 -84 156 5 5 90 22 188 37 232 36 229 36 229 18z m72 -53
c-6 -26 -22 -141 -34 -255 -12 -114 -24 -209 -27 -212 -8 -9 -229 165 -230
181 -2 25 260 334 283 334 11 0 15 -21 8 -48z m81 -237 c38 -367 35 -380 -67
-300 -42 33 -43 43 -26 185 10 83 24 203 31 267 17 165 32 129 62 -152z m-579
145 c58 -108 57 -113 -6 -129 -66 -16 -61 -23 -79 117 -17 142 14 147 85 12z
m-134 35 c0 -25 6 -78 12 -118 l12 -72 -134 -44 c-167 -54 -165 -58 -80 126
76 164 190 229 190 108z m-183 9 c-55 -132 -128 -284 -136 -283 -27 2 -140
228 -123 245 37 37 273 72 259 38z m-440 -105 c-11 -70 -57 -73 -57 -4 0 32 6
64 14 72 23 23 50 -20 43 -68z m103 63 c0 -26 -52 -64 -67 -48 -27 27 -11 66
27 66 22 0 40 -8 40 -18z m1350 -97 c42 -63 151 -216 243 -340 92 -123 167
-228 167 -232 0 -5 -102 33 -228 83 l-227 92 -12 151 c-7 83 -18 198 -25 256
-16 132 -11 131 82 -10z m-1550 8 c0 -85 -4 -89 -161 -212 -182 -140 -172
-140 -208 -8 -15 53 -41 131 -59 172 -18 41 -30 76 -27 78 6 3 367 49 420 54
28 2 35 -13 35 -84z m1098 7 c-64 -79 -104 -98 -127 -61 -11 17 140 138 175
140 9 1 -13 -35 -48 -79z m-751 -201 c-65 -65 -153 -30 -180 71 -46 175 33
211 128 59 41 -65 63 -119 52 -130z m-760 13 c64 -180 64 -186 8 -233 -71 -60
-75 -51 -75 171 0 250 0 251 67 62z m540 93 c40 -140 37 -164 -17 -185 -88
-33 -96 -27 -85 70 14 125 79 198 102 115z m833 5 c27 -32 15 -56 -88 -179
-55 -65 -60 -60 -80 82 -11 78 -8 85 43 104 78 28 97 27 125 -7z m-196 -170
c23 -208 -114 -339 -194 -185 -21 41 -59 103 -84 137 -55 74 -58 107 -11 110
19 0 80 17 135 37 135 48 138 46 154 -99z m-781 3 c-13 -63 -24 -71 -140 -107
-133 -41 -179 -35 -109 14 22 16 85 64 138 107 109 87 132 84 111 -14z m1189
-6 c85 -67 126 -112 119 -131 -6 -16 -11 -41 -11 -55 0 -49 -224 -116 -333
-100 -162 24 -175 116 -37 263 49 53 89 103 90 111 0 34 48 10 172 -88z m-812
15 c0 -4 -24 -60 -54 -124 l-53 -118 -26 99 c-14 55 -23 101 -21 103 26 18
154 52 154 40z m123 -127 c37 -63 70 -122 74 -130 7 -17 -245 -21 -262 -3 -11
10 98 248 114 248 4 0 37 -52 74 -115z m-294 4 c7 -40 19 -86 25 -103 11 -28
-179 -30 -204 -2 -49 55 42 159 153 174 7 1 19 -30 26 -69z m-209 -49 l0 -60
-129 0 c-171 0 -181 29 -27 77 164 51 156 52 156 -17z m806 -105 c-4 -8 -26
-15 -48 -15 -37 0 -38 2 -5 52 33 50 83 15 53 -37z m1074 -76 c0 -12 -266 -2
-335 12 -36 8 -45 23 -45 77 l0 67 190 -72 c104 -40 189 -78 190 -84z m-416
81 c9 -57 6 -60 -61 -60 l-70 0 57 60 c32 33 59 60 61 60 3 0 8 -27 13 -60z
m-1744 -9 c0 -24 -11 -25 -65 -7 -91 31 -92 36 -8 36 50 0 73 -9 73 -29z m195
9 c59 0 65 -6 65 -61 0 -67 -8 -68 -155 -8 -76 31 -93 101 -20 82 25 -7 74
-13 110 -13z m321 -30 c14 -13 -66 -150 -88 -150 -82 0 -128 40 -128 111 l0
73 105 -14 c58 -8 108 -17 111 -20z m-493 -69 c10 -17 57 -144 105 -283 l86
-252 -59 -113 c-76 -145 -80 -143 -122 42 -20 85 -67 265 -104 400 -38 135
-69 253 -69 263 0 28 142 -22 163 -57z m874 48 c11 -9 -21 -56 -102 -150 -115
-132 -220 -57 -234 165 -1 13 319 -2 336 -15z m178 -9 c37 0 30 -99 -8 -114
-20 -8 -45 5 -69 36 -52 67 -49 106 7 91 25 -7 56 -13 70 -13z m185 -17 c0
-22 -93 -64 -108 -48 -32 32 -7 65 48 65 33 0 60 -8 60 -17z m260 -16 c0 -6
-75 -88 -167 -180 l-168 -167 -12 62 c-33 163 -19 205 82 251 88 40 265 63
265 34z m234 -182 l5 -165 -75 -47 c-40 -25 -86 -53 -102 -62 -28 -17 -27 23
11 361 l11 101 73 -12 73 -12 4 -164z m-1502 68 c-6 -24 -12 -113 -12 -199 0
-172 -21 -185 -61 -40 -15 53 -46 147 -71 210 -53 136 -50 141 65 102 77 -26
89 -37 79 -73z m313 37 c7 -37 1 -50 -24 -50 -51 0 -61 19 -37 71 26 56 48 49
61 -21z m403 20 c32 -49 32 -49 -69 -101 -138 -70 -151 -56 -53 56 96 112 82
106 122 45z m1101 30 c121 0 172 -7 159 -20 -28 -28 -413 -262 -419 -255 -5 5
-15 253 -11 282 1 10 22 12 47 6 25 -7 126 -13 224 -13z m-527 -188 c-12 -69
-22 -158 -22 -199 0 -40 -7 -73 -17 -73 -15 0 -267 98 -278 109 -3 2 69 80
160 174 180 184 191 184 157 -11z m-1137 89 c14 -12 -113 -321 -131 -321 -10
0 6 301 17 336 9 26 80 17 114 -15z m715 -41 c0 -33 -4 -60 -9 -60 -19 0 -52
82 -41 100 24 39 50 19 50 -40z m1027 -63 c-94 -128 -112 -154 -233 -334 -119
-177 -114 -178 -114 25 l0 167 205 131 c237 152 247 152 142 11z m-1598 60
c77 -35 74 -163 -5 -195 -30 -13 -95 -50 -144 -82 -117 -77 -118 -72 -18 128
91 184 90 184 167 149z m522 -59 c67 -105 59 -110 -99 -54 -154 54 -155 56
-57 99 103 45 98 47 156 -45z m-171 -72 l50 -28 -50 11 c-27 6 -84 11 -125 11
-77 0 -103 30 -40 46 44 11 100 -2 165 -40z m75 -58 c184 -15 183 -14 115 -98
-46 -56 -60 -60 -206 -67 l-157 -7 -25 77 c-13 42 -30 90 -36 105 -9 22 5 25
66 16 43 -7 152 -19 243 -26z m-315 -79 c13 -40 19 -76 13 -82 -11 -11 -379
-46 -389 -37 -7 6 319 187 339 189 8 0 24 -31 37 -70z m633 -13 l97 -45 -75
-7 c-165 -15 -220 0 -184 51 39 55 43 55 162 1z m467 -110 l0 -154 -100 98
-99 98 84 56 c115 76 115 76 115 -98z m-570 -109 c-426 -214 -417 -221 190
-166 160 14 80 -16 -234 -90 l-265 -62 -165 113 c-175 119 -175 122 9 40 63
-28 115 -42 115 -31 0 11 50 87 112 169 l112 148 143 7 c79 4 170 8 203 10 42
2 -23 -38 -220 -138z m-197 94 c-6 -16 -45 -75 -86 -130 l-75 -100 -36 94
c-51 135 -48 142 59 150 52 4 107 9 122 11 16 3 23 -8 16 -25z m653 -80 l115
-108 -106 -10 c-232 -23 -661 -54 -666 -48 -7 6 511 273 531 274 6 1 63 -48
126 -108z m-894 -39 c61 -152 75 -151 -212 -17 l-247 115 178 11 c99 7 191 11
206 10 15 0 48 -54 75 -119z m-202 -121 c88 -57 186 -119 217 -139 71 -44 68
-47 -104 -83 l-143 -30 -211 123 c-201 118 -209 125 -183 166 16 23 43 71 62
107 l33 65 84 -53 c47 -29 157 -99 245 -156z m833 -172 l-266 -140 -79 44
c-92 52 -97 72 -23 89 30 7 172 42 315 79 355 91 357 88 53 -72z m-440 -78
l47 -40 -80 2 c-109 2 -209 27 -170 42 114 44 146 43 203 -4z" />
		<path d="M992 3784 c-15 -25 154 -344 183 -344 34 0 36 -5 -67 188 -94 177
-99 183 -116 156z" />
		<path d="M1200 3400 c0 -13 16 -48 36 -77 20 -29 58 -96 85 -148 27 -52 60
-95 74 -95 32 0 31 11 -3 66 -16 24 -56 93 -89 153 -57 106 -103 150 -103 101z" />
	</g>
</svg>
