<?xml version="1.0" standalone="no"?>
<!DOCTYPE svg PUBLIC "-//W3C//DTD SVG 20010904//EN" "http://www.w3.org/TR/2001/REC-SVG-20010904/DTD/svg10.dtd">
<svg version="1.0" xmlns="http://www.w3.org/2000/svg" width="300.000000pt" height="300.000000pt" viewBox="0 0 300.000000 300.000000" preserveAspectRatio="xMidYMid meet">
	<metadata>
		Created by potrace 1.10, written by Peter Selinger 2001-2011
	</metadata>
	<g transform="translate(0.000000,300.000000) scale(0.050000,-0.050000)" fill="#00ff00" stroke="none">
		<path d="M2686 5283 c-251 -100 -267 -158 -266 -947 1 -355 0 -664 0 -686 -2
-34 -52 153 -238 880 -105 410 -390 551 -676 335 -188 -142 -187 -221 18 -975
20 -77 41 -155 45 -173 4 -18 21 -72 37 -120 16 -48 36 -118 43 -157 l14 -70
-41 60 c-23 33 -42 66 -42 72 0 27 -225 410 -267 455 -214 232 -628 53 -621
-268 2 -89 8 -102 310 -629 287 -500 348 -671 370 -1030 22 -383 51 -490 128
-490 65 0 89 52 62 140 -13 44 -32 195 -42 335 -35 488 -64 567 -466 1267
-251 436 -261 495 -103 599 143 94 219 37 430 -325 522 -898 470 -826 548
-769 32 24 35 37 16 105 -11 43 -53 200 -91 348 -39 149 -121 455 -183 680
-61 226 -116 431 -120 457 -5 25 -19 77 -32 115 -65 199 165 379 359 279 76
-39 111 -98 148 -251 31 -127 120 -462 223 -840 29 -104 81 -301 117 -436 56
-215 70 -247 110 -257 89 -23 89 -16 93 1018 4 940 6 991 43 1040 83 112 192
141 314 83 148 -71 144 -39 147 -1165 2 -1044 2 -1042 80 -1043 42 0 61 50
173 440 413 1451 388 1369 447 1440 66 78 172 107 255 70 177 -80 203 -163
131 -415 -23 -80 -68 -244 -100 -365 -96 -362 -172 -644 -252 -930 -138 -498
-121 -883 42 -951 137 -57 186 -23 494 341 249 295 316 337 581 364 107 11
117 8 175 -50 117 -117 103 -142 -330 -597 -175 -185 -413 -436 -528 -557
-514 -541 -644 -660 -807 -737 -471 -224 -1127 -173 -1481 115 -201 164 -314
63 -119 -106 274 -238 718 -343 1195 -283 474 60 614 155 1311 891 94 99 320
338 503 530 484 509 501 536 457 699 -101 375 -630 338 -988 -70 -78 -89 -193
-219 -255 -290 -155 -177 -184 -161 -193 103 -7 196 -6 198 186 898 101 367
295 1097 303 1137 35 189 -181 443 -377 443 -320 -1 -393 -140 -697 -1314 -26
-101 -51 -181 -54 -177 -4 3 -6 331 -6 729 2 808 1 817 -146 934 -131 104
-248 126 -387 71z" />
		<path d="M2911 2579 c-282 -359 -778 -506 -1168 -347 -130 54 -198 30 -175
-60 29 -117 510 -192 794 -125 370 87 848 491 738 623 -45 54 -93 31 -189 -91z" />
		<path d="M3421 2328 c-421 -113 -751 -473 -835 -909 -41 -214 -28 -279 54
-279 66 0 69 9 89 202 36 371 328 712 701 820 222 64 235 72 219 123 -26 82
-59 89 -228 43z" />
		<path d="M1560 1410 c-32 -39 -10 -123 39 -149 77 -42 140 26 98 105 -41 78
-95 95 -137 44z" />
	</g>
</svg>
